<svg xmlns="http://www.w3.org/2000/svg" width="600" height="3000" viewBox="0 0 158.75 793.75"><defs><path id="f" d="M328.346 591.365h46.489v36.356h-46.489z"/><path id="e" d="M179.625 592.771h51.697v25.907h-51.697z"/><path id="c" d="M321.843 192.638h57.594v58.509h-57.594z"/><path id="a" d="M18.551 12.844H291.12v71.988H18.551z"/><marker id="b" markerHeight="1" markerWidth="1" orient="auto-start-reverse" preserveAspectRatio="xMidYMid" refX="0" refY="0" style="overflow:visible" viewBox="0 0 1 1"><path d="M3-3 0 0l3 3" style="fill:none;stroke:context-stroke;stroke-width:1;stroke-linecap:butt" transform="rotate(180,0.125,0)"/></marker><marker id="d" markerHeight="1" markerWidth="1" orient="auto-start-reverse" preserveAspectRatio="xMidYMid" refX="0" refY="0" style="overflow:visible" viewBox="0 0 1 1"><path d="M3-3 0 0l3 3" style="fill:none;stroke:context-stroke;stroke-width:1;stroke-linecap:butt" transform="rotate(180,0.125,0)"/></marker></defs><path d="M29.305 107.434h75.774v54.459H29.305zM30.823 37.648h59.606v45.623H30.823z" style="fill:#fff;stroke:#fff;stroke-width:.264583;stroke-linejoin:bevel"/><text xml:space="preserve" style="font-size:14.6667px;line-height:1.25;font-family:sans-serif;white-space:pre;shape-inside:url(#a);display:inline" transform="scale(0.26458333)"><tspan x="18.551" y="25.82">desi01.svg</tspan></text><circle cx="53.55" cy="59.566" r="16.482" style="fill:none;stroke:#f60;stroke-width:.264583;stroke-linejoin:bevel"/><path d="M53.55 76.313h24.953M53.55 43.084h24.953" style="fill:none;stroke:#999;stroke-width:.264583px;stroke-linecap:butt;stroke-linejoin:miter;stroke-opacity:1"/><path d="M78.503 43.084v33.23" style="fill:none;stroke:#000;stroke-width:.264583px;stroke-linecap:butt;stroke-linejoin:miter;stroke-opacity:1;marker-start:url(#b);marker-end:url(#b)"/><text xml:space="preserve" style="font-size:14.6667px;line-height:1.25;font-family:sans-serif;white-space:pre;shape-inside:url(#c);display:inline" transform="matrix(0.26458333,0,0,0.26458333,-4.5234375,6.3730469)"><tspan x="321.844" y="205.615">D1</tspan></text><path d="M35.514 112.288h41.262v22.194H35.514z" style="fill:#fff;stroke:#ff7f2a;stroke-width:.264583;stroke-linejoin:bevel"/><path d="M76.908 112.288H94.54M76.643 134.615h17.634M76.775 134.482v17.634M35.514 134.615v17.634" style="fill:none;stroke:#ccc;stroke-width:.264583px;stroke-linecap:butt;stroke-linejoin:miter;stroke-opacity:1"/><path d="m35.514 152.249 41.261-.133" style="fill:none;stroke:#000;stroke-width:.26458333;stroke-linecap:butt;stroke-linejoin:miter;stroke-opacity:1;marker-start:url(#b);marker-end:url(#b)"/><path d="m94.21 112.761.133 21.733" style="fill:none;stroke:#000;stroke-width:.264583;stroke-linecap:butt;stroke-linejoin:miter;stroke-opacity:1;marker-start:url(#d);marker-end:url(#d)"/><text xml:space="preserve" style="font-size:14.6667px;line-height:1.25;font-family:sans-serif;white-space:pre;shape-inside:url(#e)" transform="matrix(0.26458333,0,0,0.26458333,4.9663088,-4.1445314)"><tspan x="179.625" y="605.748">W1</tspan></text><text xml:space="preserve" style="font-size:14.6667px;line-height:1.25;font-family:sans-serif;white-space:pre;shape-inside:url(#f)" transform="matrix(0.26458333,0,0,0.26458333,8.0468753,-34.371095)"><tspan x="328.346" y="604.342">H1</tspan></text></svg>