<svg xmlns="http://www.w3.org/2000/svg" width="287.39" height="206.831" viewBox="0 0 76.039 54.724"><defs><marker id="a" markerHeight="1" markerWidth="1" orient="auto-start-reverse" preserveAspectRatio="xMidYMid" refX="0" refY="0" style="overflow:visible" viewBox="0 0 1 1"><path d="M3-3 0 0l3 3" style="fill:none;stroke:context-stroke;stroke-width:1;stroke-linecap:butt" transform="rotate(180,0.125,0)"/></marker><marker id="b" markerHeight="1" markerWidth="1" orient="auto-start-reverse" preserveAspectRatio="xMidYMid" refX="0" refY="0" style="overflow:visible" viewBox="0 0 1 1"><path d="M3-3 0 0l3 3" style="fill:none;stroke:context-stroke;stroke-width:1;stroke-linecap:butt" transform="rotate(180,0.125,0)"/></marker><path id="d" d="M328.346 591.365h46.489v36.356h-46.489z"/><path id="c" d="M179.625 592.771h51.697v25.907h-51.697z"/></defs><path d="M29.305 107.434h75.774v54.459H29.305z" style="fill:#fff;stroke:#fff;stroke-width:.264583;stroke-linejoin:bevel" transform="translate(-29.172398,-107.3013)"/><path d="M35.514 112.288h41.262v22.194H35.514z" style="fill:#fff;stroke:#ff7f2a;stroke-width:.264583;stroke-linejoin:bevel" transform="translate(-29.172398,-107.3013)"/><path d="M76.908 112.288H94.54M76.643 134.615h17.634M76.775 134.482v17.634M35.514 134.615v17.634" style="fill:none;stroke:#ccc;stroke-width:.264583px;stroke-linecap:butt;stroke-linejoin:miter;stroke-opacity:1" transform="translate(-29.172398,-107.3013)"/><path d="m35.514 152.249 41.261-.133" style="fill:none;stroke:#000;stroke-width:.264583;stroke-linecap:butt;stroke-linejoin:miter;stroke-opacity:1;marker-start:url(#a);marker-end:url(#a)" transform="translate(-29.172398,-107.3013)"/><path d="m94.21 112.761.133 21.733" style="fill:none;stroke:#000;stroke-width:.264583;stroke-linecap:butt;stroke-linejoin:miter;stroke-opacity:1;marker-start:url(#b);marker-end:url(#b)" transform="translate(-29.172398,-107.3013)"/><text xml:space="preserve" style="font-size:14.6667px;line-height:1.25;font-family:sans-serif;white-space:pre;shape-inside:url(#c)" transform="translate(-29.172398,-107.3013) matrix(0.26458333,0,0,0.26458333,4.9663088,-4.1445314)"><tspan x="179.625" y="605.748">W1</tspan></text><text xml:space="preserve" style="font-size:14.6667px;line-height:1.25;font-family:sans-serif;white-space:pre;shape-inside:url(#d)" transform="translate(-29.172398,-107.3013) matrix(0.26458333,0,0,0.26458333,8.0468753,-34.371095)"><tspan x="328.346" y="604.342">H1</tspan></text></svg>